# xmcd
#
# Track frame offsets:
# 150
# 15131
# 34071
# 56164
# 72744
# 86965
# 102660
# 118941
# 136741
# 168098
# 186384
# 204235
# 223022
# 237306
# 266671
#
# Disc length: 3617 seconds
#
#
# Revision: 0
# Processed by: cddbd v1.5.2PL0 Copyright (c) Steve Scherf et al.
# Submitted via: FreeRIP 2.51 
#
DISCID=df0e1f0f
DTITLE=Alabama - The Very Best Of Alabama
DYEAR=2008
DGENRE=Country
TTITLE0=Love In The First Degree
TTITLE1=Moutain Music
TTITLE2=Pass It Own Down
TTITLE3=Jukebox In My Mind
TTITLE4=Southern Star
TTITLE5=Down Home
TTITLE6=The Closer You Get
TTITLE7=Hats Off
TTITLE8=When It All Goes South
TTITLE9=My Home's In Alabama
TTITLE10=Tar Top
TTITLE11=Gonna Have A Party
TTITLE12=Say I
TTITLE13=Small Stuff
TTITLE14=Data
EXTD=
EXTT0=
EXTT1=
EXTT2=
EXTT3=
EXTT4=
EXTT5=
EXTT6=
EXTT7=
EXTT8=
EXTT9=
EXTT10=
EXTT11=
EXTT12=
EXTT13=
EXTT14=
PLAYORDER=
